<svg version="1.1" viewBox="0.0 0.0 96.0 96.0" fill="none" stroke="none" stroke-linecap="square" stroke-miterlimit="10" xmlns:xlink="http://www.w3.org/1999/xlink" xmlns="http://www.w3.org/2000/svg"><clipPath id="p.0"><path d="m0 0l96.0 0l0 96.0l-96.0 0l0 -96.0z" clip-rule="nonzero"/></clipPath><g clip-path="url(#p.0)"><path fill="#000000" fill-opacity="0.0" d="m0 0l96.0 0l0 96.0l-96.0 0z" fill-rule="evenodd"/><path fill="#ffffff" d="m5.4724417 5.2545986l85.88976 0l0 85.85827l-85.88976 0z" fill-rule="evenodd"/><path stroke="#6bb749" stroke-width="8.0" stroke-linejoin="round" stroke-linecap="butt" d="m5.4724417 5.2545986l85.88976 0l0 85.85827l-85.88976 0z" fill-rule="evenodd"/><path fill="#000000" fill-opacity="0.0" d="m-95.00787 49.349083l94.01575 0l0 94.01574l-94.01575 0z" fill-rule="evenodd"/><path fill="#ffffff" d="m-45.259766 99.06946q0 3.171875 -0.6875 5.53125q-0.6875 2.34375 -2.28125 3.90625q-1.5 1.484375 -3.515625 2.171875q-2.0 0.6875 -4.6875 0.6875q-2.734375 0 -4.765625 -0.71875q-2.03125 -0.734375 -3.40625 -2.140625q-1.59375 -1.59375 -2.28125 -3.859375q-0.6875 -2.265625 -0.6875 -5.578125l0 -17.390625l3.859375 0l0 17.59375q0 2.359375 0.3125 3.734375q0.328125 1.359375 1.09375 2.46875q0.859375 1.28125 2.328125 1.921875q1.484375 0.640625 3.546875 0.640625q2.09375 0 3.5625 -0.625q1.46875 -0.640625 2.34375 -1.9375q0.765625 -1.109375 1.078125 -2.546875q0.328125 -1.4375 0.328125 -3.5625l0 -17.6875l3.859375 0l0 17.390625zm17.636719 11.6875l-11.484375 0l0 -2.96875l3.8125 0l0 -23.140625l-3.8125 0l0 -2.96875l11.484375 0l0 2.96875l-3.796875 0l0 23.140625l3.796875 0l0 2.96875z" fill-rule="nonzero"/><path fill="#000000" fill-opacity="0.0" d="m8.650819 7.654636l78.698364 0l0 80.690735l-78.698364 0z" fill-rule="evenodd"/><path stroke="#000000" stroke-width="4.0" stroke-linejoin="round" stroke-linecap="butt" d="m8.650819 7.654636l78.698364 0l0 80.690735l-78.698364 0z" fill-rule="evenodd"/><path fill="#000000" fill-opacity="0.0" d="m19.035234 81.49289l58.660614 0l0 0.23762512l-58.660614 0z" fill-rule="evenodd"/><path stroke="#000000" stroke-width="4.0" stroke-linejoin="round" stroke-linecap="butt" d="m19.035234 81.49289l58.660614 0l0 0.23762512l-58.660614 0z" fill-rule="evenodd"/><path fill="#000000" fill-opacity="0.0" d="m19.035234 72.347145l58.660614 0l0 0.23762512l-58.660614 0z" fill-rule="evenodd"/><path stroke="#000000" stroke-width="4.0" stroke-linejoin="round" stroke-linecap="butt" d="m19.035234 72.347145l58.660614 0l0 0.23762512l-58.660614 0z" fill-rule="evenodd"/><path fill="#000000" fill-opacity="0.0" d="m19.035234 64.24914l23.754774 0l0 0.23762512l-23.754774 0z" fill-rule="evenodd"/><path stroke="#000000" stroke-width="4.0" stroke-linejoin="round" stroke-linecap="butt" d="m19.035234 64.24914l23.754774 0l0 0.23762512l-23.754774 0z" fill-rule="evenodd"/><path fill="#000000" fill-opacity="0.0" d="m19.035234 55.102467l23.754774 0l0 0.23762512l-23.754774 0z" fill-rule="evenodd"/><path stroke="#000000" stroke-width="4.0" stroke-linejoin="round" stroke-linecap="butt" d="m19.035234 55.102467l23.754774 0l0 0.23762512l-23.754774 0z" fill-rule="evenodd"/><path fill="#000000" fill-opacity="0.0" d="m19.035234 47.00434l23.754774 0l0 0.23762512l-23.754774 0z" fill-rule="evenodd"/><path stroke="#000000" stroke-width="4.0" stroke-linejoin="round" stroke-linecap="butt" d="m19.035234 47.00434l23.754774 0l0 0.23762512l-23.754774 0z" fill-rule="evenodd"/><path fill="#000000" fill-opacity="0.0" d="m53.927006 37.857666l23.754772 0l0 24.916698l-23.754772 0z" fill-rule="evenodd"/><path stroke="#000000" stroke-width="4.0" stroke-linejoin="round" stroke-linecap="butt" d="m53.927006 37.857666l23.754772 0l0 24.916698l-23.754772 0z" fill-rule="evenodd"/><path fill="#000000" fill-opacity="0.0" d="m19.035234 37.857666l23.754774 0l0 0.23762512l-23.754774 0z" fill-rule="evenodd"/><path stroke="#000000" stroke-width="4.0" stroke-linejoin="round" stroke-linecap="butt" d="m19.035234 37.857666l23.754774 0l0 0.23762512l-23.754774 0z" fill-rule="evenodd"/><path fill="#000000" fill-opacity="0.0" d="m19.035519 15.990251l58.66061 0l0 12.628083l-58.66061 0z" fill-rule="evenodd"/><path stroke="#000000" stroke-width="4.0" stroke-linejoin="round" stroke-linecap="butt" d="m19.035519 15.990251l58.66061 0l0 12.628083l-58.66061 0z" fill-rule="evenodd"/><path fill="#000000" fill-opacity="0.0" d="m111.57567 -0.94662756l58.015747 0l0 74.86614l-58.015747 0z" fill-rule="evenodd"/><path stroke="#000000" stroke-width="4.0" stroke-linejoin="round" stroke-linecap="butt" d="m111.57567 -0.94662756l58.015747 0l0 74.86614l-58.015747 0z" fill-rule="evenodd"/><path fill="#000000" fill-opacity="0.0" d="m119.23097 67.56168l43.244095 0l0 0.22046661l-43.244095 0z" fill-rule="evenodd"/><path stroke="#000000" stroke-width="4.0" stroke-linejoin="round" stroke-linecap="butt" d="m119.23097 67.56168l43.244095 0l0 0.22046661l-43.244095 0z" fill-rule="evenodd"/><path fill="#000000" fill-opacity="0.0" d="m119.23097 59.076115l43.244095 0l0 0.22047424l-43.244095 0z" fill-rule="evenodd"/><path stroke="#000000" stroke-width="4.0" stroke-linejoin="round" stroke-linecap="butt" d="m119.23097 59.076115l43.244095 0l0 0.22047424l-43.244095 0z" fill-rule="evenodd"/><path fill="#000000" fill-opacity="0.0" d="m119.23097 51.562656l17.51181 0l0 0.22047043l-17.51181 0z" fill-rule="evenodd"/><path stroke="#000000" stroke-width="4.0" stroke-linejoin="round" stroke-linecap="butt" d="m119.23097 51.562656l17.51181 0l0 0.22047043l-17.51181 0z" fill-rule="evenodd"/><path fill="#000000" fill-opacity="0.0" d="m119.23097 43.076225l17.51181 0l0 0.22047043l-17.51181 0z" fill-rule="evenodd"/><path stroke="#000000" stroke-width="4.0" stroke-linejoin="round" stroke-linecap="butt" d="m119.23097 43.076225l17.51181 0l0 0.22047043l-17.51181 0z" fill-rule="evenodd"/><path fill="#000000" fill-opacity="0.0" d="m119.23097 35.562656l17.51181 0l0 0.22047043l-17.51181 0z" fill-rule="evenodd"/><path stroke="#000000" stroke-width="4.0" stroke-linejoin="round" stroke-linecap="butt" d="m119.23097 35.562656l17.51181 0l0 0.22047043l-17.51181 0z" fill-rule="evenodd"/><path fill="#000000" fill-opacity="0.0" d="m144.95288 27.076225l17.51181 0l0 23.11811l-17.51181 0z" fill-rule="evenodd"/><path stroke="#000000" stroke-width="4.0" stroke-linejoin="round" stroke-linecap="butt" d="m144.95288 27.076225l17.51181 0l0 23.11811l-17.51181 0z" fill-rule="evenodd"/><path fill="#000000" fill-opacity="0.0" d="m119.23097 27.076223l17.51181 0l0 0.22047234l-17.51181 0z" fill-rule="evenodd"/><path stroke="#000000" stroke-width="4.0" stroke-linejoin="round" stroke-linecap="butt" d="m119.23097 27.076223l17.51181 0l0 0.22047234l-17.51181 0z" fill-rule="evenodd"/><path fill="#000000" fill-opacity="0.0" d="m119.23118 6.7872887l43.244102 0l0 11.716536l-43.244102 0z" fill-rule="evenodd"/><path stroke="#000000" stroke-width="4.0" stroke-linejoin="round" stroke-linecap="butt" d="m119.23118 6.7872887l43.244102 0l0 11.716536l-43.244102 0z" fill-rule="evenodd"/><path fill="#ff0000" d="m9.359676 -9.904807l96.53543 96.53543l-19.275589 19.275597l-96.53544 -96.53544z" fill-rule="evenodd"/><path fill="#980000" d="m12.33363 24.56354l-8.131727 -8.131727l12.341223 -12.341224l8.131727 8.131728l-1.4584064 1.4584074l-6.4854965 -6.485495l-3.3808537 3.3808541l6.4854946 6.4854956l-1.4584064 1.4584084l-6.4854956 -6.4854956l-4.585146 4.585145l6.4854956 6.4854946l-1.4584084 1.4584084zm24.353752 -0.3286934l-10.352486 1.8451061l-1.9997864 10.485069l-1.8893013 -1.8893013l1.7125244 -8.452137l-8.529475 1.6351852l-1.7898636 -1.7898655l10.46297 -1.8672028l1.9776897 -10.374583l1.8893013 1.8893013l-1.6904278 8.341651l8.407944 -1.624136l1.800911 1.8009129zm-0.3949852 24.287458l-1.7567177 -1.7567177l2.231804 -4.6403885l-5.336445 -5.336445l-4.6514378 2.2207565l-1.6572819 -1.65728l16.826931 -7.8555164l2.1876144 2.1876125l-7.844467 16.837978zm1.3810692 -8.319553l3.8890839 -8.220116l-8.220116 3.8890877l4.331032 4.331028zm11.479439 21.180061l-1.6462326 -1.6462326l10.628696 -10.6287l-10.650795 3.8007011l-0.98332214 -0.98332214l3.8227997 -10.628696l-10.6287 10.628696l-1.5357513 -1.5357475l12.341225 -12.341225l2.242855 2.242859l-3.5907745 10.15361l10.0541725 -3.6902122l2.2870483 2.2870483l-12.341221 12.341221zm19.992336 2.7787094q-0.8175888 0.8175888 -1.8119583 1.2374344q-0.98332214 0.40879822 -2.0108337 0.39775085q-1.2705841 0.011047363 -2.4638252 -0.54138184q-1.1932449 -0.55242157 -2.5190697 -1.8782501l-1.6351852 -1.6351852l-4.596195 4.5961914l-1.6462326 -1.6462326l12.341221 -12.341221l3.3477097 3.3477097q1.1159058 1.115902 1.6904297 2.0660782q0.5855713 0.9612236 0.7844467 1.9555931q0.23201752 1.1821938 -0.088386536 2.2759972q-0.30936432 1.0827599 -1.3921204 2.165516zm-1.7456665 -1.6793785q0.6297684 -0.6297684 0.8838806 -1.3258247q0.25411987 -0.6960602 0.088386536 -1.4584084q-0.14363098 -0.6518631 -0.5413742 -1.2705841q-0.39775085 -0.6187172 -1.1711502 -1.3921165l-1.6241302 -1.6241341l-4.9276543 4.9276505l1.3810692 1.3810692q0.9943695 0.9943657 1.7898636 1.4363098q0.7954941 0.4419403 1.5909882 0.4419403q0.7844467 -0.011047363 1.3700256 -0.28726196q0.607666 -0.2762146 1.1600952 -0.82864zm3.107399 20.254742l-7.8113174 -7.8113174l12.341225 -12.341225l1.6462326 1.6462326l-10.88282 10.8828125l6.1650925 6.1650925l-1.4584122 1.4584045zm9.766914 9.766914l-8.131729 -8.131729l12.341225 -12.341225l8.131729 8.131729l-1.4584122 1.4584045l-6.485489 -6.485489l-3.3808594 3.3808517l6.4854965 6.4854965l-1.4584045 1.4584045l-6.4854965 -6.4854965l-4.585144 4.5851517l6.4854965 6.485489l-1.4584122 1.4584122z" fill-rule="nonzero"/><path fill="#000000" fill-opacity="0.0" d="m1.3464057 1.3491244l93.66929 0l0 93.6693l-93.66929 0z" fill-rule="evenodd"/><path stroke="#000000" stroke-width="3.0" stroke-linejoin="round" stroke-linecap="butt" d="m1.3464057 1.3491244l93.66929 0l0 93.6693l-93.66929 0z" fill-rule="evenodd"/></g></svg>